<svg xmlns="http://www.w3.org/2000/svg" viewBox="0 0 426.7 426.7" class="undefined"><path d="M352 256c-24 0-45.1 11.6-58.8 29.2l-144.4-55.6c0.1-1.9 0.6-3.7 0.6-5.6 0-3.6-0.6-7-1.1-10.5l148-68.3c13.7 15.5 33.5 25.5 55.7 25.5 41.2 0 74.7-33.5 74.7-74.7 0-41.2-33.5-74.7-74.7-74.7S277.3 54.8 277.3 96c0 3.6 0.6 7 1.1 10.5l-148 68.3c-13.7-15.5-33.5-25.5-55.7-25.5C33.5 149.3 0 182.8 0 224c0 41.2 33.5 74.7 74.7 74.7 24 0 45.1-11.6 58.8-29.2l144.4 55.6c-0.1 1.9-0.6 3.7-0.6 5.6 0 41.2 33.5 74.7 74.7 74.7s74.7-33.5 74.7-74.7C426.7 289.5 393.2 256 352 256z" class="undefined"/></svg>