<?xml version="1.0" encoding="utf-8"?>
<!-- Generator: Adobe Illustrator 23.0.5, SVG Export Plug-In . SVG Version: 6.00 Build 0)  -->
<svg version="1.1" xmlns="http://www.w3.org/2000/svg" xmlns:xlink="http://www.w3.org/1999/xlink" x="0px" y="0px"
	 viewBox="0 0 794.2 568.7" style="enable-background:new 0 0 794.2 568.7;" xml:space="preserve">
<style type="text/css">
	.st0{display:none;}
	.st1{display:inline;fill:#FFFFFF;}
	.st2{fill:#EFEFEF;}
	
		.st3{clip-path:url(#SVGID_2_);fill:#BCD915;stroke:#BCD915;stroke-width:2.126;stroke-linecap:round;stroke-linejoin:round;stroke-miterlimit:10;}
	
		.st4{clip-path:url(#SVGID_2_);fill:none;stroke:#140035;stroke-width:2.126;stroke-linecap:round;stroke-linejoin:round;stroke-miterlimit:10;}
	.st5{clip-path:url(#SVGID_2_);fill:#BCD915;}
	.st6{clip-path:url(#SVGID_2_);}
	.st7{fill:none;stroke:#140035;stroke-width:2.126;stroke-linecap:round;stroke-linejoin:round;stroke-miterlimit:10;}
	.st8{fill:none;stroke:#BCD915;stroke-width:2.126;stroke-linecap:round;stroke-linejoin:round;stroke-miterlimit:10;}
	.st9{fill:#FFFFFF;}
	.st10{fill:#BCD915;stroke:#BCD915;stroke-width:2.126;stroke-linecap:round;stroke-linejoin:round;stroke-miterlimit:10;}
	.st11{fill:#EFEFEF;stroke:#140035;stroke-width:2.8347;stroke-linecap:round;stroke-linejoin:round;stroke-miterlimit:10;}
	.st12{fill:#FFFFFF;stroke:#140035;stroke-width:2.8347;stroke-linecap:round;stroke-linejoin:round;stroke-miterlimit:10;}
	.st13{fill:none;stroke:#BCD915;stroke-width:2.8347;stroke-linecap:round;stroke-linejoin:round;stroke-miterlimit:10;}
	.st14{fill:#1A171B;}
	.st15{fill:#BCD915;}
	.st16{fill:none;stroke:#140035;stroke-width:2.8347;stroke-linecap:round;stroke-linejoin:round;stroke-miterlimit:10;}
	.st17{fill:none;stroke:#FFFFFF;stroke-width:2.8347;stroke-linecap:round;stroke-linejoin:round;stroke-miterlimit:10;}
	.st18{clip-path:url(#SVGID_4_);}
	.st19{fill:none;stroke:#BCD915;stroke-width:1.4173;stroke-linecap:round;stroke-linejoin:round;stroke-miterlimit:10;}
</style>
<g id="BACKGROUND" class="st0">
	<rect x="23.2" y="26.8" class="st1" width="750" height="500"/>
</g>
<g id="OBJECTS">
	<rect class="st2" width="794.2" height="568.7"/>
	<g>
		<defs>
			<polygon id="SVGID_1_" points="799.9,2.9 -1.4,-3.9 -5.7,565.9 795.6,572.7 			"/>
		</defs>
		<clipPath id="SVGID_2_">
			<use xlink:href="#SVGID_1_"  style="overflow:visible;"/>
		</clipPath>
		<polygon class="st3" points="319.2,556.6 411.2,557.4 411.4,523 319.5,522.2 		"/>
		<polygon class="st4" points="107.1,95.5 -32.7,94.3 -32.5,65.4 107.4,66.6 		"/>
		<ellipse class="st5" cx="584.9" cy="123.2" rx="101.3" ry="108.1"/>
		<ellipse class="st5" cx="316.2" cy="-27" rx="48.9" ry="52.2"/>
		<polygon class="st5" points="739.9,458.1 602,602.9 646.3,650.9 784.2,506.1 		"/>
		<g class="st6">
			<g>
				<polyline class="st7" points="-69.1,410 -50,392.2 -31.2,410.3 -12.1,392.5 6.7,410.6 25.8,392.9 44.6,410.9 63.7,393.2 
					82.5,411.3 101.6,393.5 				"/>
			</g>
			<g>
				<polyline class="st8" points="-68.8,381.5 -49.8,363.7 -31,381.8 -11.9,364 6.9,382.1 26,364.3 44.8,382.4 63.9,364.7 
					82.7,382.8 101.8,365 				"/>
			</g>
		</g>
		<g class="st6">
			<path class="st9" d="M818.5,421.2c-1.8-2-1.8-5.2,0.1-7.2c1.9-2,4.9-1.9,6.7,0.1c1.8,2,1.8,5.2-0.1,7.2
				C823.4,423.3,820.4,423.2,818.5,421.2z"/>
			<path class="st9" d="M800.2,440.5c-1.8-2-1.8-5.2,0.1-7.2c1.9-2,4.9-1.9,6.7,0.1c1.8,2,1.8,5.2-0.1,7.2
				C805,442.5,802,442.5,800.2,440.5z"/>
			<path class="st9" d="M781.8,459.8c-1.8-2-1.8-5.2,0.1-7.2c1.9-2,4.9-1.9,6.7,0.1c1.8,2,1.8,5.2-0.1,7.2
				C786.7,461.8,783.7,461.8,781.8,459.8z"/>
			<path class="st9" d="M763.5,479.1c-1.8-2-1.8-5.2,0.1-7.2c1.9-2,4.9-1.9,6.7,0.1c1.8,2,1.8,5.2-0.1,7.2
				C768.3,481.1,765.3,481,763.5,479.1z"/>
			<path class="st9" d="M745.1,498.3c-1.8-2-1.8-5.2,0.1-7.2c1.9-2,4.9-1.9,6.7,0.1c1.8,2,1.8,5.2-0.1,7.2
				C749.9,500.3,746.9,500.3,745.1,498.3z"/>
			<path class="st9" d="M726.7,517.6c-1.8-2-1.8-5.2,0.1-7.2s4.9-1.9,6.7,0.1c1.8,2,1.8,5.2-0.1,7.2
				C731.6,519.6,728.6,519.6,726.7,517.6z"/>
			<path class="st9" d="M708.4,536.9c-1.8-2-1.8-5.2,0.1-7.2s4.9-1.9,6.7,0.1c1.8,2,1.8,5.2-0.1,7.2
				C713.2,538.9,710.2,538.9,708.4,536.9z"/>
			<path class="st9" d="M690,556.1c-1.8-2-1.8-5.2,0.1-7.2c1.9-2,4.9-1.9,6.7,0.1c1.8,2,1.8,5.2-0.1,7.2
				C694.9,558.2,691.9,558.1,690,556.1z"/>
		</g>
		<g class="st6">
			<g>
				<g>
					<ellipse cx="143.3" cy="466.2" rx="3.5" ry="3.8"/>
					<path d="M127.1,483.1c-1.4-1.5-1.4-3.9,0-5.3c1.4-1.5,3.6-1.4,5,0c1.4,1.5,1.4,3.9,0,5.3C130.7,484.6,128.4,484.6,127.1,483.1z
						"/>
					<path d="M113.4,497.5c-1.4-1.5-1.4-3.9,0-5.3c1.4-1.5,3.6-1.4,5,0c1.4,1.5,1.4,3.9,0,5.3C117,499,114.8,499,113.4,497.5z"/>
					<ellipse cx="102.3" cy="509.2" rx="3.5" ry="3.8"/>
					<path d="M86.1,526.2c-1.4-1.5-1.4-3.9,0-5.3c1.4-1.5,3.6-1.4,5,0c1.4,1.5,1.4,3.9,0,5.3C89.7,527.7,87.5,527.7,86.1,526.2z"/>
					<ellipse cx="74.9" cy="537.9" rx="3.5" ry="3.8"/>
					<ellipse cx="61.3" cy="552.2" rx="3.5" ry="3.8"/>
					<path d="M45.1,569.2c-1.4-1.5-1.4-3.9,0-5.3c1.4-1.5,3.6-1.4,5,0c1.4,1.5,1.4,3.9,0,5.3C48.7,570.7,46.5,570.7,45.1,569.2z"/>
				</g>
			</g>
			<g>
				<g>
					<ellipse cx="136.6" cy="498.7" rx="3.5" ry="3.8"/>
					<ellipse cx="123" cy="513.1" rx="3.5" ry="3.8"/>
					<path d="M106.8,530c-1.4-1.5-1.4-3.9,0-5.3c1.4-1.5,3.6-1.4,5,0c1.4,1.5,1.4,3.9,0,5.3C110.4,531.6,108.2,531.5,106.8,530z"/>
					<ellipse cx="95.7" cy="541.8" rx="3.5" ry="3.8"/>
					<ellipse cx="82" cy="556.1" rx="3.5" ry="3.8"/>
					<path d="M65.8,573.1c-1.4-1.5-1.4-3.9,0-5.3c1.4-1.5,3.6-1.4,5,0c1.4,1.5,1.4,3.9,0,5.3C69.4,574.6,67.2,574.6,65.8,573.1z"/>
					<ellipse cx="54.7" cy="584.8" rx="3.5" ry="3.8"/>
					<ellipse cx="41" cy="599.1" rx="3.5" ry="3.8"/>
				</g>
			</g>
		</g>
		<g class="st6">
			<g>
				<path class="st9" d="M714.7-26.2c-1.4-1.5-1.4-3.9,0-5.3c1.4-1.5,3.6-1.4,5,0c1.4,1.5,1.4,3.9,0,5.3
					C718.3-24.7,716.1-24.8,714.7-26.2z"/>
				<path class="st9" d="M701.1-11.9c-1.4-1.5-1.4-3.9,0-5.3c1.4-1.5,3.6-1.4,5,0c1.4,1.5,1.4,3.9,0,5.3
					C704.7-10.4,702.4-10.4,701.1-11.9z"/>
				<ellipse class="st9" cx="689.9" cy="-0.2" rx="3.5" ry="3.8"/>
				<ellipse class="st9" cx="676.2" cy="14.2" rx="3.5" ry="3.8"/>
				<ellipse class="st9" cx="662.6" cy="28.5" rx="3.5" ry="3.8"/>
				<ellipse class="st9" cx="648.9" cy="42.8" rx="3.5" ry="3.8"/>
				<path class="st9" d="M632.7,59.8c-1.4-1.5-1.4-3.9,0-5.3c1.4-1.5,3.6-1.4,5,0c1.4,1.5,1.4,3.9,0,5.3
					C636.3,61.3,634.1,61.3,632.7,59.8z"/>
				<path class="st9" d="M619.1,74.2c-1.4-1.5-1.4-3.9,0-5.3c1.4-1.5,3.6-1.4,5,0c1.4,1.5,1.4,3.9,0,5.3
					C622.7,75.7,620.4,75.7,619.1,74.2z"/>
			</g>
			<g>
				<g>
					<ellipse cx="710.6" cy="3.7" rx="3.5" ry="3.8"/>
					<path d="M694.4,20.7c-1.4-1.5-1.4-3.9,0-5.3c1.4-1.5,3.6-1.4,5,0c1.4,1.5,1.4,3.9,0,5.3C698,22.2,695.8,22.2,694.4,20.7z"/>
					<ellipse cx="683.3" cy="32.4" rx="3.5" ry="3.8"/>
					<ellipse cx="669.6" cy="46.7" rx="3.5" ry="3.8"/>
					<ellipse cx="656" cy="61.1" rx="3.5" ry="3.8"/>
					<ellipse cx="642.3" cy="75.4" rx="3.5" ry="3.8"/>
					<ellipse cx="628.6" cy="89.8" rx="3.5" ry="3.8"/>
					<path d="M612.5,106.7c-1.4-1.5-1.4-3.9,0-5.3c1.4-1.5,3.6-1.4,5,0c1.4,1.5,1.4,3.9,0,5.3C616.1,108.2,613.8,108.2,612.5,106.7z
						"/>
				</g>
			</g>
		</g>
		<g class="st6">
			<line class="st7" x1="349" y1="193.1" x2="333.6" y2="216"/>
			<line class="st7" x1="365.2" y1="193.2" x2="350.4" y2="215.9"/>
			<line class="st7" x1="381.5" y1="193.4" x2="366.4" y2="216.3"/>
			<line class="st7" x1="397.8" y1="193.5" x2="383" y2="216.1"/>
			<line class="st7" x1="414" y1="193.6" x2="398.8" y2="216.5"/>
			<line class="st7" x1="430.3" y1="193.8" x2="414.7" y2="216.6"/>
			<line class="st7" x1="446.6" y1="193.9" x2="432.1" y2="216.7"/>
			<line class="st7" x1="462.8" y1="194.1" x2="448.2" y2="216.8"/>
			<line class="st7" x1="479.1" y1="194.2" x2="463.9" y2="217.1"/>
			<line class="st7" x1="495.4" y1="194.3" x2="480" y2="217.2"/>
		</g>
		<g class="st6">
			<polygon class="st10" points="566.6,308.8 385.9,307.3 427.9,290.1 608.6,291.6 			"/>
			<polygon class="st10" points="440,450.8 259.3,449.3 301.3,432.1 482,433.6 			"/>
			<polygon class="st10" points="524.4,356.1 343.7,354.6 385.7,337.4 566.4,338.9 			"/>
			<polygon class="st10" points="482.2,403.5 301.5,401.9 343.5,384.7 524.2,386.3 			"/>
			<polygon class="st11" points="566.4,338.9 385.7,337.4 385.9,307.3 566.6,308.8 			"/>
			<polygon class="st11" points="524.2,386.3 343.5,384.7 343.7,354.6 524.4,356.1 			"/>
			<polygon class="st11" points="482,433.6 301.3,432.1 301.5,401.9 482.2,403.5 			"/>
		</g>
		<g class="st6">
			<line class="st12" x1="632.6" y1="349.1" x2="632.3" y2="384.9"/>
			<line class="st13" x1="646.7" y1="380.9" x2="646.5" y2="416.7"/>
			<line class="st12" x1="660.9" y1="412.8" x2="660.6" y2="448.6"/>
			<line class="st13" x1="675" y1="444.6" x2="674.7" y2="480.4"/>
		</g>
		<g class="st6">
			<line class="st12" x1="110.5" y1="-17.6" x2="110.2" y2="18.2"/>
			<line class="st13" x1="124.6" y1="14.3" x2="124.3" y2="50.1"/>
			<line class="st12" x1="138.7" y1="46.1" x2="138.5" y2="81.9"/>
			<line class="st13" x1="152.9" y1="77.9" x2="152.6" y2="113.7"/>
		</g>
		<g class="st6">
			<path class="st14" d="M380.5,492.3c-1.1,0-2,1-2,2.1c0,0.3,0.1,0.6,0.2,0.8c0.3,0.8,1,1.3,1.9,1.3c0.8,0,1.6-0.5,1.9-1.3
				c0.1-0.3,0.2-0.5,0.2-0.8C382.5,493.3,381.6,492.3,380.5,492.3z"/>
			<path class="st14" d="M370.4,481.4c-1.1,0-2,1-2,2.1c0,1.2,0.9,2.2,2,2.2c1.1,0,2-1,2-2.1C372.4,482.4,371.5,481.4,370.4,481.4z"
				/>
			<path class="st14" d="M390.6,485.9c1.1,0,2-1,2-2.1c0-1.2-0.9-2.2-2-2.2c-1.1,0-2,0.9-2,2.1C388.6,484.9,389.5,485.9,390.6,485.9
				z"/>
			<path class="st14" d="M360.2,492.1c-1.1,0-2,1-2,2.1c0,0.3,0.1,0.6,0.2,0.8c0.3,0.8,1,1.3,1.9,1.3c0.8,0,1.6-0.5,1.9-1.3
				c0.1-0.3,0.2-0.5,0.2-0.8C362.2,493.1,361.3,492.1,360.2,492.1z"/>
			<path class="st14" d="M380.1,535.5c-0.8,0-1.6,0.5-1.9,1.3c-0.1,0.3-0.2,0.5-0.2,0.8c0,0.3,0.1,0.6,0.2,0.8
				c0.3,0.8,1,1.3,1.9,1.3c0.8,0,1.6-0.5,1.9-1.3c0.1-0.3,0.2-0.5,0.2-0.8c0-0.3-0.1-0.6-0.2-0.8C381.7,536.1,381,535.5,380.1,535.5
				z"/>
			<path class="st14" d="M380.3,513.9c-1.1,0-2,1-2,2.1c0,1.2,0.9,2.2,2,2.2c1.1,0,2-1,2-2.1C382.3,514.9,381.4,513.9,380.3,513.9z"
				/>
			<path class="st14" d="M370.1,524.6c-1.1,0-2,1-2,2.1c0,1.2,0.9,2.2,2,2.2c1.1,0,2-0.9,2-2.1C372.1,525.6,371.2,524.6,370.1,524.6
				z"/>
			<path class="st14" d="M390.3,524.8c-1.1,0-2,1-2,2.1c0,1.2,0.9,2.2,2,2.2c1.1,0,2-1,2-2.1C392.4,525.8,391.5,524.8,390.3,524.8z"
				/>
			<path class="st14" d="M370.3,503c-1.1,0-2,1-2,2.1c0,1.2,0.9,2.2,2,2.2c1.1,0,2-0.9,2-2.1C372.3,504,371.4,503,370.3,503z"/>
			<path class="st14" d="M390.5,503.2c-1.1,0-2,1-2,2.1c0,1.2,0.9,2.2,2,2.2c1.1,0,2-0.9,2-2.1C392.5,504.2,391.6,503.2,390.5,503.2
				z"/>
			<path class="st14" d="M359.9,535.4c-0.8,0-1.6,0.5-1.9,1.3c-0.1,0.3-0.2,0.5-0.2,0.8c0,0.3,0.1,0.6,0.2,0.8
				c0.3,0.8,1,1.3,1.9,1.3c0.8,0,1.6-0.5,1.9-1.3c0.1-0.3,0.2-0.5,0.2-0.8c0-0.3-0.1-0.6-0.2-0.8
				C361.4,535.9,360.7,535.4,359.9,535.4z"/>
			<path class="st14" d="M360,513.7c-1.1,0-2,1-2,2.1c0,1.2,0.9,2.2,2,2.2c1.1,0,2-1,2-2.1C362.1,514.7,361.2,513.8,360,513.7z"/>
			<path class="st14" d="M379.8,578.7c-1.1,0-2,1-2,2.1c0,0.3,0.1,0.6,0.2,0.8c0.3,0.8,1,1.3,1.9,1.3c0.8,0,1.6-0.5,1.9-1.3
				c0.1-0.3,0.2-0.5,0.2-0.8C381.8,579.7,380.9,578.8,379.8,578.7z"/>
			<path class="st14" d="M380,557.1c-1.1,0-2,1-2,2.1c0,1.2,0.9,2.2,2,2.2c1.1,0,2-1,2-2.1C382,558.1,381.1,557.1,380,557.1z"/>
			<path class="st14" d="M369.8,567.9c-1.1,0-2,1-2,2.1c0,1.2,0.9,2.2,2,2.2c1.1,0,2-1,2-2.1C371.8,568.8,370.9,567.9,369.8,567.9z"
				/>
			<path class="st14" d="M390,568c-1.1,0-2,1-2,2.1c0,1.2,0.9,2.2,2,2.2c1.1,0,2-1,2-2.1C392,569,391.1,568,390,568z"/>
			<path class="st14" d="M369.9,546.2c-1.1,0-2,1-2,2.1c0,1.2,0.9,2.2,2,2.2c1.1,0,2-0.9,2-2.1C371.9,547.2,371,546.3,369.9,546.2z"
				/>
			<path class="st14" d="M390.2,546.4c-1.1,0-2,1-2,2.1c0,1.2,0.9,2.2,2,2.2c1.1,0,2-1,2-2.1C392.2,547.4,391.3,546.4,390.2,546.4z"
				/>
			<path class="st14" d="M359.6,578.6c-1.1,0-2,1-2,2.1c0,0.3,0.1,0.6,0.2,0.8c0.3,0.8,1,1.3,1.9,1.3c0.8,0,1.6-0.5,1.9-1.3
				c0.1-0.3,0.2-0.5,0.2-0.8C361.6,579.6,360.7,578.6,359.6,578.6z"/>
			<path class="st14" d="M359.7,557c-1.1,0-2,0.9-2,2.1c0,1.2,0.9,2.2,2,2.2c1.1,0,2-1,2-2.1C361.7,558,360.8,557,359.7,557z"/>
			<path class="st14" d="M369.6,589.5c-1.1,0-2,1-2,2.1c0,1.2,0.9,2.2,2,2.2c1.1,0,2-1,2-2.1C371.6,590.5,370.7,589.5,369.6,589.5z"
				/>
			<path class="st14" d="M389.9,589.6c-1.1,0-2,1-2,2.1c0,1.2,0.9,2.2,2,2.2c1.1,0,2-0.9,2-2.1C391.9,590.6,391,589.6,389.9,589.6z"
				/>
			<path class="st14" d="M339.9,492c-1.1,0-2,1-2,2.1c0,0.3,0.1,0.6,0.2,0.8c0.3,0.8,1,1.3,1.9,1.3c0.8,0,1.6-0.5,1.9-1.3
				c0.1-0.3,0.2-0.5,0.2-0.8C342,492.9,341.1,492,339.9,492z"/>
			<path class="st14" d="M329.9,481.1c-1.1,0-2,1-2,2.1c0,1.2,0.9,2.2,2,2.2c1.1,0,2-1,2-2.1C331.9,482.1,331,481.1,329.9,481.1z"/>
			<path class="st14" d="M350.2,481.2c-1.1,0-2,0.9-2,2.1c0,1.2,0.9,2.2,2,2.2c1.1,0,2-1,2-2.1C352.2,482.2,351.3,481.3,350.2,481.2
				z"/>
			<path class="st14" d="M319.7,491.8c-1.1,0-2,0.9-2,2.1c0,0.3,0.1,0.6,0.2,0.8c0.3,0.8,1,1.3,1.9,1.3c0.8,0,1.6-0.5,1.9-1.3
				c0.1-0.3,0.2-0.5,0.2-0.8C321.7,492.8,320.8,491.8,319.7,491.8z"/>
			<path class="st14" d="M339.6,535.2c-0.8,0-1.6,0.5-1.9,1.3c-0.1,0.3-0.2,0.5-0.2,0.8c0,0.3,0.1,0.6,0.2,0.8
				c0.3,0.8,1,1.3,1.9,1.3c0.8,0,1.6-0.5,1.9-1.3c0.1-0.3,0.2-0.5,0.2-0.8c0-0.3-0.1-0.6-0.2-0.8
				C341.2,535.7,340.5,535.2,339.6,535.2z"/>
			<path class="st14" d="M339.8,513.6c-1.1,0-2,1-2,2.1c0,1.2,0.9,2.2,2,2.2c1.1,0,2-1,2-2.1C341.8,514.6,340.9,513.6,339.8,513.6z"
				/>
			<path class="st14" d="M329.6,524.3c-1.1,0-2,1-2,2.1c0,1.2,0.9,2.2,2,2.2c1.1,0,2-1,2-2.1C331.6,525.3,330.7,524.3,329.6,524.3z"
				/>
			<path class="st14" d="M349.8,524.5c-1.1,0-2,1-2,2.1c0,1.2,0.9,2.2,2,2.2c1.1,0,2-1,2-2.1C351.9,525.4,351,524.5,349.8,524.5z"/>
			<path class="st14" d="M329.7,502.7c-1.1,0-2,1-2,2.1c0,1.2,0.9,2.2,2,2.2c1.1,0,2-1,2-2.1C331.8,503.7,330.9,502.7,329.7,502.7z"
				/>
			<path class="st14" d="M350,502.9c-1.1,0-2,1-2,2.1c0,1.2,0.9,2.2,2,2.2c1.1,0,2-0.9,2-2.1C352,503.8,351.1,502.9,350,502.9z"/>
			<path class="st14" d="M319.4,535c-0.8,0-1.6,0.5-1.9,1.3c-0.1,0.3-0.2,0.5-0.2,0.8c0,0.3,0.1,0.6,0.2,0.8c0.3,0.8,1,1.3,1.9,1.3
				c0.8,0,1.6-0.5,1.9-1.3c0.1-0.3,0.2-0.5,0.2-0.8c0-0.3-0.1-0.6-0.2-0.8C320.9,535.6,320.2,535,319.4,535z"/>
			<path class="st14" d="M319.5,513.4c-1.1,0-2,1-2,2.1c0,1.2,0.9,2.2,2,2.2c1.1,0,2-1,2-2.1C321.5,514.4,320.6,513.4,319.5,513.4z"
				/>
			<path class="st14" d="M339.3,578.4c-1.1,0-2,1-2,2.1c0,0.3,0.1,0.6,0.2,0.8c0.3,0.8,1,1.3,1.9,1.3c0.8,0,1.6-0.5,1.9-1.3
				c0.1-0.3,0.2-0.5,0.2-0.8C341.3,579.4,340.4,578.4,339.3,578.4z"/>
			<path class="st14" d="M339.5,556.8c-1.1,0-2,1-2,2.1c0,1.2,0.9,2.2,2,2.2c1.1,0,2-1,2-2.1C341.5,557.8,340.6,556.8,339.5,556.8z"
				/>
			<path class="st14" d="M329.3,567.5c-1.1,0-2,1-2,2.1c0,1.2,0.9,2.2,2,2.2c1.1,0,2-1,2-2.1C331.3,568.5,330.4,567.5,329.3,567.5z"
				/>
			<path class="st14" d="M349.5,567.7c-1.1,0-2,1-2,2.1c0,1.2,0.9,2.2,2,2.2c1.1,0,2-1,2-2.1C351.5,568.7,350.6,567.7,349.5,567.7z"
				/>
			<path class="st14" d="M329.4,545.9c-1.1,0-2,1-2,2.1c0,1.2,0.9,2.2,2,2.2c1.1,0,2-0.9,2-2.1C331.4,546.9,330.5,545.9,329.4,545.9
				z"/>
			<path class="st14" d="M349.7,546.1c-1.1,0-2,1-2,2.1c0,1.2,0.9,2.2,2,2.2c1.1,0,2-1,2-2.1C351.7,547.1,350.8,546.1,349.7,546.1z"
				/>
			<path class="st14" d="M319,578.2c-1.1,0-2,0.9-2,2.1c0,0.3,0.1,0.6,0.2,0.8c0.3,0.8,1,1.3,1.9,1.3c0.8,0,1.6-0.5,1.9-1.3
				c0.1-0.3,0.2-0.5,0.2-0.8C321.1,579.2,320.2,578.2,319,578.2z"/>
			<path class="st14" d="M319.2,556.6c-1.1,0-2,0.9-2,2.1c0,1.2,0.9,2.2,2,2.2c1.1,0,2-1,2-2.1C321.2,557.6,320.3,556.6,319.2,556.6
				z"/>
			<path class="st14" d="M329.1,589.1c-1.1,0-2,1-2,2.1c0,1.2,0.9,2.2,2,2.2c1.1,0,2-1,2-2.1C331.1,590.1,330.2,589.1,329.1,589.1z"
				/>
			<path class="st14" d="M349.3,589.3c-1.1,0-2,1-2,2.1c0,1.2,0.9,2.2,2,2.2c1.1,0,2-0.9,2-2.1C351.4,590.3,350.5,589.3,349.3,589.3
				z"/>
			<path class="st14" d="M299.4,491.6c-1.1,0-2,1-2,2.1c0,0.3,0.1,0.6,0.2,0.8c0.3,0.8,1,1.3,1.9,1.3c0.8,0,1.6-0.5,1.9-1.3
				c0.1-0.3,0.2-0.5,0.2-0.8C301.5,492.6,300.6,491.6,299.4,491.6z"/>
			<path class="st14" d="M289.4,480.7c-1.1,0-2,1-2,2.1c0,1.2,0.9,2.2,2,2.2c1.1,0,2-1,2-2.1C291.4,481.7,290.5,480.7,289.4,480.7z"
				/>
			<path class="st14" d="M309.6,480.9c-1.1,0-2,0.9-2,2.1c0,1.2,0.9,2.2,2,2.2c1.1,0,2-1,2-2.1C311.7,481.9,310.8,480.9,309.6,480.9
				z"/>
			<path class="st14" d="M299.1,534.8c-0.8,0-1.6,0.5-1.9,1.3c-0.1,0.3-0.2,0.5-0.2,0.8c0,0.3,0.1,0.6,0.2,0.8
				c0.3,0.8,1,1.3,1.9,1.3c0.8,0,1.6-0.5,1.9-1.3c0.1-0.3,0.2-0.5,0.2-0.8c0-0.3-0.1-0.6-0.2-0.8
				C300.7,535.4,299.9,534.8,299.1,534.8z"/>
			<path class="st14" d="M299.3,513.2c-1.1,0-2,1-2,2.1c0,1.2,0.9,2.2,2,2.2c1.1,0,2-1,2-2.1C301.3,514.2,300.4,513.2,299.3,513.2z"
				/>
			<path class="st14" d="M289.1,523.9c-1.1,0-2,1-2,2.1c0,1.2,0.9,2.2,2,2.2c1.1,0,2-1,2-2.1C291.1,524.9,290.2,524,289.1,523.9z"/>
			<path class="st14" d="M309.3,524.1c-1.1,0-2,1-2,2.1c0,1.2,0.9,2.2,2,2.2c1.1,0,2-1,2-2.1C311.3,525.1,310.4,524.1,309.3,524.1z"
				/>
			<path class="st14" d="M289.2,502.3c-1.1,0-2,1-2,2.1c0,1.2,0.9,2.2,2,2.2c1.1,0,2-1,2-2.1C291.2,503.3,290.3,502.3,289.2,502.3z"
				/>
			<path class="st14" d="M309.5,502.5c-1.1,0-2,1-2,2.1c0,1.2,0.9,2.2,2,2.2c1.1,0,2-0.9,2-2.1C311.5,503.5,310.6,502.5,309.5,502.5
				z"/>
			<path class="st14" d="M298.8,578.1c-1.1,0-2,1-2,2.1c0,0.3,0.1,0.6,0.2,0.8c0.3,0.8,1,1.3,1.9,1.3c0.8,0,1.6-0.5,1.9-1.3
				c0.1-0.3,0.2-0.5,0.2-0.8C300.8,579,299.9,578.1,298.8,578.1z"/>
			<path class="st14" d="M298.9,556.4c-1.1,0-2,1-2,2.1c0,1.2,0.9,2.2,2,2.2c1.1,0,2-1,2-2.1C301,557.4,300.1,556.5,298.9,556.4z"/>
			<path class="st14" d="M288.7,567.2c-1.1,0-2,1-2,2.1c0,1.2,0.9,2.2,2,2.2c1.1,0,2-1,2-2.1C290.8,568.2,289.9,567.2,288.7,567.2z"
				/>
			<path class="st14" d="M309,567.3c-1.1,0-2,1-2,2.1c0,1.2,0.9,2.2,2,2.2c1.1,0,2-1,2-2.1C311,568.3,310.1,567.3,309,567.3z"/>
			<path class="st14" d="M288.9,545.6c-1.1,0-2,1-2,2.1c0,1.2,0.9,2.2,2,2.2c1.1,0,2-0.9,2-2.1C290.9,546.5,290,545.6,288.9,545.6z"
				/>
			<path class="st14" d="M309.2,545.7c-1.1,0-2,1-2,2.1c0,1.2,0.9,2.2,2,2.2c1.1,0,2-1,2-2.1C311.2,546.7,310.3,545.7,309.2,545.7z"
				/>
			<path class="st14" d="M288.6,588.8c-1.1,0-2,1-2,2.1c0,1.2,0.9,2.2,2,2.2c1.1,0,2-1,2-2.1C290.6,589.8,289.7,588.8,288.6,588.8z"
				/>
			<path class="st14" d="M308.8,589c-1.1,0-2,1-2,2.1c0,1.2,0.9,2.2,2,2.2c1.1,0,2-0.9,2-2.1C310.9,589.9,310,589,308.8,589z"/>
		</g>
		<g class="st6">
			<path class="st15" d="M73.9,127.7c0-1.2-0.9-2.2-2-2.2c-0.3,0-0.5,0.1-0.8,0.2c-0.7,0.3-1.2,1.1-1.3,2c0,0.9,0.5,1.7,1.2,2
				c0.2,0.1,0.5,0.2,0.8,0.2C73,129.8,73.9,128.9,73.9,127.7z"/>
			<path class="st15" d="M84.1,116.9c0-1.2-0.9-2.2-2-2.2c-1.1,0-2,0.9-2,2.1c0,1.2,0.9,2.2,2,2.2C83.2,119.1,84.1,118.1,84.1,116.9
				z"/>
			<path class="st15" d="M79.9,138.5c0,1.2,0.9,2.2,2,2.2c1.1,0,2-1,2-2.1c0-1.2-0.9-2.2-2-2.2C80.8,136.4,79.9,137.3,79.9,138.5z"
				/>
			<path class="st15" d="M74.1,106.1c0-1.2-0.9-2.2-2-2.2c-0.3,0-0.5,0.1-0.8,0.2c-0.7,0.3-1.2,1.1-1.3,2c0,0.9,0.5,1.7,1.2,2
				c0.2,0.1,0.5,0.2,0.8,0.2C73.2,108.2,74.1,107.2,74.1,106.1z"/>
			<path class="st15" d="M33.4,127.3c0-0.9-0.5-1.7-1.2-2c-0.2-0.1-0.5-0.2-0.8-0.2c-0.3,0-0.5,0.1-0.8,0.2c-0.7,0.3-1.2,1.1-1.3,2
				c0,0.9,0.5,1.7,1.2,2c0.2,0.1,0.5,0.2,0.8,0.2c0.3,0,0.5-0.1,0.8-0.2C32.9,129,33.4,128.2,33.4,127.3z"/>
			<path class="st15" d="M53.7,127.5c0-1.2-0.9-2.2-2-2.2c-1.1,0-2,0.9-2,2.1c0,1.2,0.9,2.2,2,2.2C52.7,129.6,53.7,128.7,53.7,127.5
				z"/>
			<path class="st15" d="M43.6,116.6c0-1.2-0.9-2.2-2-2.2c-1.1,0-2,0.9-2,2.1c0,1.2,0.9,2.2,2,2.2C42.7,118.8,43.6,117.8,43.6,116.6
				z"/>
			<path class="st15" d="M43.5,138.2c0-1.2-0.9-2.2-2-2.2c-1.1,0-2,1-2,2.1c0,1.2,0.9,2.2,2,2.2C42.5,140.4,43.4,139.4,43.5,138.2z"
				/>
			<path class="st15" d="M63.9,116.8c0-1.2-0.9-2.2-2-2.2c-1.1,0-2,0.9-2,2.1c0,1.2,0.9,2.2,2,2.2C63,118.9,63.9,118,63.9,116.8z"/>
			<path class="st15" d="M63.7,138.4c0-1.2-0.9-2.2-2-2.2c-1.1,0-2,1-2,2.1c0,1.2,0.9,2.2,2,2.2C62.8,140.5,63.7,139.6,63.7,138.4z"
				/>
			<path class="st15" d="M33.6,105.7c0-0.9-0.5-1.7-1.2-2c-0.2-0.1-0.5-0.2-0.8-0.2c-0.3,0-0.5,0.1-0.8,0.2c-0.7,0.3-1.2,1.1-1.3,2
				c0,0.9,0.5,1.7,1.2,2c0.2,0.1,0.5,0.2,0.8,0.2c0.3,0,0.5-0.1,0.8-0.2C33,107.4,33.6,106.6,33.6,105.7z"/>
			<path class="st15" d="M53.8,105.9c0-1.2-0.9-2.2-2-2.2c-1.1,0-2,0.9-2,2.1c0,1.2,0.9,2.2,2,2.2C52.9,108,53.8,107.1,53.8,105.9z"
				/>
			<path class="st15" d="M-7.1,127c0-1.2-0.9-2.2-2-2.2c-0.3,0-0.5,0.1-0.8,0.2c-0.7,0.3-1.2,1.1-1.3,2c0,0.9,0.5,1.7,1.2,2
				c0.2,0.1,0.5,0.2,0.8,0.2C-8,129.1-7.1,128.2-7.1,127z"/>
			<path class="st15" d="M13.2,127.1c0-1.2-0.9-2.2-2-2.2c-1.1,0-2,0.9-2,2.1c0,1.2,0.9,2.2,2,2.2C12.2,129.3,13.1,128.3,13.2,127.1
				z"/>
			<path class="st15" d="M3.1,116.3c0-1.2-0.9-2.2-2-2.2c-1.1,0-2,0.9-2,2.1c0,1.2,0.9,2.2,2,2.2C2.2,118.4,3.1,117.5,3.1,116.3z"/>
			<path class="st15" d="M2.9,137.9c0-1.2-0.9-2.2-2-2.2c-1.1,0-2,1-2,2.1c0,1.2,0.9,2.2,2,2.2C2,140,2.9,139.1,2.9,137.9z"/>
			<path class="st15" d="M23.4,116.4c0-1.2-0.9-2.2-2-2.2c-1.1,0-2,0.9-2,2.1c0,1.2,0.9,2.2,2,2.2C22.4,118.6,23.4,117.6,23.4,116.4
				z"/>
			<path class="st15" d="M23.2,138c0-1.2-0.9-2.2-2-2.2c-1.1,0-2,1-2,2.1c0,1.2,0.9,2.2,2,2.2C22.3,140.2,23.2,139.2,23.2,138z"/>
			<path class="st15" d="M-6.9,105.4c0-1.2-0.9-2.2-2-2.2c-0.3,0-0.5,0.1-0.8,0.2c-0.7,0.3-1.2,1.1-1.3,2c0,0.9,0.5,1.7,1.2,2
				c0.2,0.1,0.5,0.2,0.8,0.2C-7.9,107.5-7,106.6-6.9,105.4z"/>
			<path class="st15" d="M13.3,105.5c0-1.2-0.9-2.2-2-2.2c-1.1,0-2,0.9-2,2.1c0,1.2,0.9,2.2,2,2.2C12.4,107.7,13.3,106.7,13.3,105.5
				z"/>
			<path class="st15" d="M-27.4,126.8c0-1.2-0.9-2.2-2-2.2c-1.1,0-2,0.9-2,2.1c0,1.2,0.9,2.2,2,2.2C-28.3,129-27.4,128-27.4,126.8z"
				/>
			<path class="st15" d="M-17.2,116.1c0-1.2-0.9-2.2-2-2.2c-1.1,0-2,0.9-2,2.1c0,1.2,0.9,2.2,2,2.2
				C-18.1,118.2-17.2,117.3-17.2,116.1z"/>
			<path class="st15" d="M-17.3,137.7c0-1.2-0.9-2.2-2-2.2c-1.1,0-2,1-2,2.1c0,1.2,0.9,2.2,2,2.2C-18.2,139.9-17.3,138.9-17.3,137.7
				z"/>
			<path class="st15" d="M-27.2,105.2c0-1.2-0.9-2.2-2-2.2c-1.1,0-2,0.9-2,2.1c0,1.2,0.9,2.2,2,2.2
				C-28.1,107.3-27.2,106.4-27.2,105.2z"/>
			<path class="st15" d="M74.2,84.4c0-1.2-0.9-2.2-2-2.2c-0.3,0-0.5,0.1-0.8,0.2c-0.7,0.3-1.2,1.1-1.3,2c0,0.9,0.5,1.7,1.2,2
				c0.2,0.1,0.5,0.2,0.8,0.2C73.3,86.6,74.2,85.6,74.2,84.4z"/>
			<path class="st15" d="M84.5,73.7c0-1.2-0.9-2.2-2-2.2c-1.1,0-2,0.9-2,2.1c0,1.2,0.9,2.2,2,2.2C83.5,75.9,84.4,74.9,84.5,73.7z"/>
			<path class="st15" d="M84.3,95.3c0-1.2-0.9-2.2-2-2.2c-1.1,0-2,1-2,2.1c0,1.2,0.9,2.2,2,2.2C83.4,97.5,84.3,96.5,84.3,95.3z"/>
			<path class="st15" d="M74.4,62.8c0-1.2-0.9-2.2-2-2.2c-0.3,0-0.5,0.1-0.8,0.2c-0.7,0.3-1.2,1.1-1.3,2c0,0.9,0.5,1.7,1.2,2
				c0.2,0.1,0.5,0.2,0.8,0.2C73.5,65,74.4,64,74.4,62.8z"/>
			<path class="st15" d="M33.7,84.1c0-0.9-0.5-1.7-1.2-2c-0.2-0.1-0.5-0.2-0.8-0.2c-0.3,0-0.5,0.1-0.8,0.2c-0.7,0.3-1.2,1.1-1.3,2
				c0,0.9,0.5,1.7,1.2,2c0.2,0.1,0.5,0.2,0.8,0.2c0.3,0,0.5-0.1,0.8-0.2C33.2,85.8,33.7,85,33.7,84.1z"/>
			<path class="st15" d="M54,84.3c0-1.2-0.9-2.2-2-2.2c-1.1,0-2,0.9-2,2.1c0,1.2,0.9,2.2,2,2.2C53.1,86.4,54,85.5,54,84.3z"/>
			<path class="st15" d="M43.9,73.4c0-1.2-0.9-2.2-2-2.2c-1.1,0-2,0.9-2,2.1c0,1.2,0.9,2.2,2,2.2C43,75.5,43.9,74.6,43.9,73.4z"/>
			<path class="st15" d="M43.8,95c0-1.2-0.9-2.2-2-2.2c-1.1,0-2,1-2,2.1c0,1.2,0.9,2.2,2,2.2C42.9,97.1,43.8,96.2,43.8,95z"/>
			<path class="st15" d="M64.2,73.6c0-1.2-0.9-2.2-2-2.2c-1.1,0-2,0.9-2,2.1c0,1.2,0.9,2.2,2,2.2C63.3,75.7,64.2,74.7,64.2,73.6z"/>
			<path class="st15" d="M64,95.2c0-1.2-0.9-2.2-2-2.2c-1.1,0-2,1-2,2.1c0,1.2,0.9,2.2,2,2.2C63.1,97.3,64,96.4,64,95.2z"/>
			<path class="st15" d="M33.9,62.5c0-0.9-0.5-1.7-1.2-2c-0.2-0.1-0.5-0.2-0.8-0.2c-0.3,0-0.5,0.1-0.8,0.2c-0.7,0.3-1.2,1.1-1.3,2
				c0,0.9,0.5,1.7,1.2,2c0.2,0.1,0.5,0.2,0.8,0.2c0.3,0,0.5-0.1,0.8-0.2C33.4,64.2,33.9,63.4,33.9,62.5z"/>
			<path class="st15" d="M54.1,62.7c0-1.2-0.9-2.2-2-2.2c-1.1,0-2,0.9-2,2.1c0,1.2,0.9,2.2,2,2.2C53.2,64.8,54.1,63.9,54.1,62.7z"/>
			<path class="st15" d="M-6.8,83.8c0-1.2-0.9-2.2-2-2.2c-0.3,0-0.5,0.1-0.8,0.2c-0.7,0.3-1.2,1.1-1.3,2c0,0.9,0.5,1.7,1.2,2
				c0.2,0.1,0.5,0.2,0.8,0.2C-7.7,85.9-6.8,84.9-6.8,83.8z"/>
			<path class="st15" d="M13.5,83.9c0-1.2-0.9-2.2-2-2.2c-1.1,0-2,0.9-2,2.1c0,1.2,0.9,2.2,2,2.2C12.6,86.1,13.5,85.1,13.5,83.9z"/>
			<path class="st15" d="M3.4,73c0-1.2-0.9-2.2-2-2.2c-1.1,0-2,0.9-2,2.1c0,1.2,0.9,2.2,2,2.2C2.5,75.2,3.4,74.2,3.4,73z"/>
			<path class="st15" d="M3.3,94.6c0-1.2-0.9-2.2-2-2.2c-1.1,0-2,1-2,2.1c0,1.2,0.9,2.2,2,2.2C2.3,96.8,3.3,95.8,3.3,94.6z"/>
			<path class="st15" d="M23.7,73.2c0-1.2-0.9-2.2-2-2.2c-1.1,0-2,0.9-2,2.1c0,1.2,0.9,2.2,2,2.2C22.8,75.4,23.7,74.4,23.7,73.2z"/>
			<path class="st15" d="M23.5,94.8c0-1.2-0.9-2.2-2-2.2c-1.1,0-2,1-2,2.1c0,1.2,0.9,2.2,2,2.2C22.6,97,23.5,96,23.5,94.8z"/>
			<path class="st15" d="M-6.6,62.1c0-1.2-0.9-2.2-2-2.2c-0.3,0-0.5,0.1-0.8,0.2c-0.7,0.3-1.2,1.1-1.3,2c0,0.9,0.5,1.7,1.2,2
				c0.2,0.1,0.5,0.2,0.8,0.2C-7.5,64.3-6.6,63.3-6.6,62.1z"/>
			<path class="st15" d="M13.6,62.3c0-1.2-0.9-2.2-2-2.2c-1.1,0-2,0.9-2,2.1c0,1.2,0.9,2.2,2,2.2C12.7,64.5,13.6,63.5,13.6,62.3z"/>
			<path class="st15" d="M-27,83.6c0-1.2-0.9-2.2-2-2.2c-1.1,0-2,0.9-2,2.1c0,1.2,0.9,2.2,2,2.2C-28,85.7-27.1,84.8-27,83.6z"/>
			<path class="st15" d="M-16.8,72.9c0-1.2-0.9-2.2-2-2.2c-1.1,0-2,0.9-2,2.1c0,1.2,0.9,2.2,2,2.2C-17.8,75-16.8,74.1-16.8,72.9z"/>
			<path class="st15" d="M-17,94.5c0-1.2-0.9-2.2-2-2.2c-1.1,0-2,1-2,2.1c0,1.2,0.9,2.2,2,2.2C-17.9,96.6-17,95.7-17,94.5z"/>
			<path class="st15" d="M-26.9,62c0-1.2-0.9-2.2-2-2.2c-1.1,0-2,0.9-2,2.1c0,1.2,0.9,2.2,2,2.2S-26.9,63.2-26.9,62z"/>
			<path class="st15" d="M74.6,41.2c0-1.2-0.9-2.2-2-2.2c-0.3,0-0.5,0.1-0.8,0.2c-0.7,0.3-1.2,1.1-1.3,2c0,0.9,0.5,1.7,1.2,2
				c0.2,0.1,0.5,0.2,0.8,0.2C73.6,43.4,74.6,42.4,74.6,41.2z"/>
			<path class="st15" d="M84.8,30.5c0-1.2-0.9-2.2-2-2.2c-1.1,0-2,0.9-2,2.1c0,1.2,0.9,2.2,2,2.2C83.9,32.7,84.8,31.7,84.8,30.5z"/>
			<path class="st15" d="M84.6,52.1c0-1.2-0.9-2.2-2-2.2c-1.1,0-2,1-2,2.1c0,1.2,0.9,2.2,2,2.2C83.7,54.3,84.6,53.3,84.6,52.1z"/>
			<path class="st15" d="M34.1,40.9c0-0.9-0.5-1.7-1.2-2c-0.2-0.1-0.5-0.2-0.8-0.2c-0.3,0-0.5,0.1-0.8,0.2c-0.7,0.3-1.2,1.1-1.3,2
				c0,0.9,0.5,1.7,1.2,2C31.5,43,31.7,43,32,43c0.3,0,0.5-0.1,0.8-0.2C33.5,42.5,34,41.8,34.1,40.9z"/>
			<path class="st15" d="M54.3,41.1c0-1.2-0.9-2.2-2-2.2c-1.1,0-2,0.9-2,2.1c0,1.2,0.9,2.2,2,2.2C53.4,43.2,54.3,42.2,54.3,41.1z"/>
			<path class="st15" d="M44.3,30.2c0-1.2-0.9-2.2-2-2.2c-1.1,0-2,0.9-2,2.1c0,1.2,0.9,2.2,2,2.2C43.3,32.3,44.3,31.4,44.3,30.2z"/>
			<path class="st15" d="M44.1,51.8c0-1.2-0.9-2.2-2-2.2c-1.1,0-2,1-2,2.1c0,1.2,0.9,2.2,2,2.2C43.2,53.9,44.1,53,44.1,51.8z"/>
			<path class="st15" d="M64.5,30.3c0-1.2-0.9-2.2-2-2.2c-1.1,0-2,0.9-2,2.1c0,1.2,0.9,2.2,2,2.2C63.6,32.5,64.5,31.5,64.5,30.3z"/>
			<path class="st15" d="M64.4,51.9c0-1.2-0.9-2.2-2-2.2c-1.1,0-2,1-2,2.1c0,1.2,0.9,2.2,2,2.2C63.4,54.1,64.4,53.1,64.4,51.9z"/>
			<path class="st15" d="M-6.5,40.5c0-1.2-0.9-2.2-2-2.2c-0.3,0-0.5,0.1-0.8,0.2c-0.7,0.3-1.2,1.1-1.3,2c0,0.9,0.5,1.7,1.2,2
				c0.2,0.1,0.5,0.2,0.8,0.2C-7.4,42.7-6.5,41.7-6.5,40.5z"/>
			<path class="st15" d="M13.8,40.7c0-1.2-0.9-2.2-2-2.2c-1.1,0-2,0.9-2,2.1c0,1.2,0.9,2.2,2,2.2C12.9,42.9,13.8,41.9,13.8,40.7z"/>
			<path class="st15" d="M3.7,29.8c0-1.2-0.9-2.2-2-2.2c-1.1,0-2,0.9-2,2.1c0,1.2,0.9,2.2,2,2.2C2.8,32,3.7,31,3.7,29.8z"/>
			<path class="st15" d="M3.6,51.4c0-1.2-0.9-2.2-2-2.2c-1.1,0-2,1-2,2.1c0,1.2,0.9,2.2,2,2.2C2.7,53.6,3.6,52.6,3.6,51.4z"/>
			<path class="st15" d="M24,30c0-1.2-0.9-2.2-2-2.2c-1.1,0-2,0.9-2,2.1c0,1.2,0.9,2.2,2,2.2C23.1,32.1,24,31.2,24,30z"/>
			<path class="st15" d="M23.8,51.6c0-1.2-0.9-2.2-2-2.2c-1.1,0-2,1-2,2.1c0,1.2,0.9,2.2,2,2.2C22.9,53.8,23.8,52.8,23.8,51.6z"/>
			<path class="st15" d="M-26.7,40.4c0-1.2-0.9-2.2-2-2.2c-1.1,0-2,0.9-2,2.1c0,1.2,0.9,2.2,2,2.2C-27.6,42.5-26.7,41.6-26.7,40.4z"
				/>
			<path class="st15" d="M-16.5,29.6c0-1.2-0.9-2.2-2-2.2c-1.1,0-2,0.9-2,2.1c0,1.2,0.9,2.2,2,2.2C-17.4,31.8-16.5,30.8-16.5,29.6z"
				/>
			<path class="st15" d="M-16.7,51.3c0-1.2-0.9-2.2-2-2.2c-1.1,0-2,1-2,2.1c0,1.2,0.9,2.2,2,2.2C-17.6,53.4-16.7,52.4-16.7,51.3z"/>
		</g>
		<g class="st6">
			<g>
				<g>
					<path class="st10" d="M19,303.8l-20.5-19.7c-0.9-0.9-2.2-0.9-3.1,0l-13.1,12.2c-4.3,4-10.7,3.5-14.4-1l0,0
						c-3.7-4.5-3.3-11.4,1-15.4l21.5-20c3.9-3.6,9.7-3.6,13.6,0.1l20.5,19.7c0.9,0.9,2.2,0.9,3.1,0l20.8-19.4
						c3.9-3.6,9.7-3.6,13.6,0.1l20.5,19.7c0.9,0.9,2.2,0.9,3.1,0l20.8-19.4c3.9-3.6,9.7-3.6,13.6,0.1l20.5,19.7
						c0.9,0.9,2.2,0.9,3.1,0l20.8-19.4c3.9-3.6,9.7-3.6,13.6,0.1l20.5,19.7c0.9,0.9,2.2,0.9,3.1,0l13.1-12.2
						c4.3-4,10.7-3.5,14.4,1.1l0,0c3.7,4.5,3.3,11.4-1,15.4l-21.5,20c-3.9,3.6-9.7,3.6-13.6-0.1l-20.5-19.7c-0.9-0.9-2.2-0.9-3.1,0
						l-20.8,19.4c-3.9,3.6-9.7,3.6-13.6-0.1l-20.5-19.7c-0.9-0.9-2.2-0.9-3.1,0l-20.8,19.4c-3.9,3.6-9.7,3.6-13.6-0.1l-20.5-19.7
						c-0.9-0.9-2.2-0.9-3.1,0l-20.8,19.4C28.7,307.6,22.9,307.5,19,303.8z"/>
				</g>
			</g>
			<g>
				<g>
					<path class="st7" d="M20,287l-20.5-19.7c-0.9-0.9-2.2-0.9-3.1,0l-13.1,12.2c-4.3,4-10.7,3.5-14.4-1l0,0
						c-3.7-4.5-3.3-11.4,1-15.4l21.5-20c3.9-3.6,9.7-3.6,13.6,0.1l20.5,19.7c0.9,0.9,2.2,0.9,3.1,0l20.8-19.4
						c3.9-3.6,9.7-3.6,13.6,0.1l20.5,19.7c0.9,0.9,2.2,0.9,3.1,0l20.8-19.4c3.9-3.6,9.7-3.6,13.6,0.1l20.5,19.7
						c0.9,0.9,2.2,0.9,3.1,0l20.8-19.4c3.9-3.6,9.7-3.6,13.6,0.1l20.5,19.7c0.9,0.9,2.2,0.9,3.1,0l13.1-12.2
						c4.3-4,10.7-3.5,14.4,1.1l0,0c3.7,4.5,3.3,11.4-1,15.4l-21.5,20c-3.9,3.6-9.7,3.6-13.6-0.1l-20.5-19.7c-0.9-0.9-2.2-0.9-3.1,0
						l-20.8,19.4c-3.9,3.6-9.7,3.6-13.6-0.1l-20.5-19.7c-0.9-0.9-2.2-0.9-3.1,0l-20.8,19.4c-3.9,3.6-9.7,3.6-13.6-0.1l-20.5-19.7
						c-0.9-0.9-2.2-0.9-3.1,0l-20.8,19.4C29.6,290.8,23.8,290.7,20,287z"/>
				</g>
			</g>
		</g>
		<g class="st6">
			<g>
				<g>
					<path class="st10" d="M485,537.4l-12.6-12.2c-0.5-0.5-1.4-0.5-1.9,0l-8.1,7.5c-2.6,2.4-6.6,2.2-8.9-0.6l0,0
						c-2.3-2.8-2-7,0.6-9.5l13.3-12.3c2.4-2.2,6-2.2,8.4,0.1l12.6,12.2c0.5,0.5,1.4,0.5,1.9,0l12.8-11.9c2.4-2.2,6-2.2,8.4,0.1
						l12.7,12.2c0.5,0.5,1.4,0.5,1.9,0l12.8-11.9c2.4-2.2,6-2.2,8.4,0.1l12.6,12.2c0.5,0.5,1.4,0.5,1.9,0l12.8-11.9
						c2.4-2.2,6-2.2,8.4,0.1l12.7,12.2c0.5,0.5,1.4,0.5,1.9,0l8.1-7.5c2.6-2.4,6.6-2.2,8.9,0.6l0,0c2.3,2.8,2,7-0.6,9.5l-13.3,12.3
						c-2.4,2.2-6,2.2-8.4-0.1l-12.7-12.2c-0.5-0.5-1.4-0.5-1.9,0l-12.8,11.9c-2.4,2.2-6,2.2-8.4-0.1l-12.6-12.2
						c-0.5-0.5-1.4-0.5-1.9,0l-12.8,11.9c-2.4,2.2-6,2.2-8.4-0.1l-12.7-12.2c-0.5-0.5-1.4-0.5-1.9,0l-12.8,11.9
						C491,539.7,487.4,539.7,485,537.4z"/>
				</g>
			</g>
		</g>
		<g class="st6">
			<polygon class="st10" points="582.4,437.7 580.4,460.5 561,431.3 533.6,452 535.6,429.2 563,408.5 			"/>
			<polygon class="st16" points="553,481.2 533.6,452 561,431.3 580.4,460.5 			"/>
		</g>
		<g class="st6">
			<polygon class="st10" points="162.2,189.7 164,156.5 132.8,158.8 131.6,193.3 			"/>
			<polygon class="st16" points="177.5,204.3 178.6,169.8 164,156.5 132.8,158.8 131.6,193.3 146.3,206.6 			"/>
		</g>
		<g class="st6">
			<polygon class="st10" points="712.2,386.3 743.4,388.1 741.2,354.8 708.8,353.6 			"/>
			<polygon class="st16" points="698.5,402.5 730.9,403.7 743.4,388.1 741.2,354.8 708.8,353.6 696.3,369.3 			"/>
		</g>
		<g class="st6">
			<path class="st17" d="M662.3,147.7c-7-5.5-14.5-10.1-20.7-15.5"/>
			<path class="st17" d="M662.2,165c-7-4.6-13.4-11.5-20.7-15.5"/>
			<path class="st17" d="M662.1,182.4c-7-3.7-13.4-10.6-20.7-15.5"/>
		</g>
		<g class="st6">
			<ellipse cx="634.3" cy="296.4" rx="3.5" ry="3.8"/>
			<ellipse cx="653.5" cy="296.5" rx="3.5" ry="3.8"/>
			<ellipse cx="672.7" cy="296.7" rx="3.5" ry="3.8"/>
			<ellipse cx="691.8" cy="296.9" rx="3.5" ry="3.8"/>
			<path d="M714.6,297.1c0,2.1-1.6,3.8-3.6,3.7c-2,0-3.5-1.7-3.5-3.8c0-2.1,1.6-3.8,3.6-3.7C713,293.3,714.6,295,714.6,297.1z"/>
			<ellipse cx="730.2" cy="297.2" rx="3.5" ry="3.8"/>
			<ellipse cx="749.4" cy="297.3" rx="3.5" ry="3.8"/>
			<ellipse cx="768.5" cy="297.5" rx="3.5" ry="3.8"/>
		</g>
		<g class="st6">
			<defs>
				<ellipse id="SVGID_3_" cx="243.1" cy="98.5" rx="50.8" ry="54.2"/>
			</defs>
			<clipPath id="SVGID_4_">
				<use xlink:href="#SVGID_3_"  style="overflow:visible;"/>
			</clipPath>
			<g class="st18">
				<line class="st7" x1="185.2" y1="24" x2="183.9" y2="190.8"/>
				<line class="st7" x1="195" y1="24.1" x2="193.8" y2="190.8"/>
				<line class="st7" x1="204.9" y1="24.2" x2="203.6" y2="190.9"/>
				<line class="st7" x1="214.7" y1="24.2" x2="213.5" y2="191"/>
				<line class="st7" x1="224.5" y1="24.3" x2="223.3" y2="191.1"/>
				<line class="st7" x1="234.4" y1="24.4" x2="233.1" y2="191.2"/>
				<line class="st7" x1="244.2" y1="24.5" x2="243" y2="191.3"/>
				<line class="st7" x1="254.1" y1="24.6" x2="252.8" y2="191.3"/>
				<line class="st7" x1="263.9" y1="24.7" x2="262.7" y2="191.4"/>
				<line class="st7" x1="273.7" y1="24.7" x2="272.5" y2="191.5"/>
				<line class="st7" x1="283.6" y1="24.8" x2="282.3" y2="191.6"/>
				<line class="st7" x1="293.4" y1="24.9" x2="292.2" y2="191.7"/>
				<line class="st7" x1="303.3" y1="25" x2="302" y2="191.8"/>
			</g>
		</g>
		<g class="st6">
			<path class="st15" d="M47.4,481.4c0,3.4-2.6,6.1-5.8,6.1c-3.2,0-5.7-2.8-5.7-6.1c0-3.4,2.6-6.1,5.8-6.1
				C44.9,475.3,47.4,478,47.4,481.4z"/>
			<ellipse class="st19" cx="41.7" cy="481.4" rx="10" ry="10.7"/>
			<ellipse class="st16" cx="41.7" cy="481.4" rx="20.9" ry="22.3"/>
		</g>
		<g class="st6">
			<path class="st15" d="M764.8,239.6c0,4.4-3.4,7.9-7.4,7.8c-4.1,0-7.4-3.6-7.3-7.9c0-4.4,3.4-7.9,7.4-7.8
				C761.5,231.7,764.8,235.2,764.8,239.6z"/>
			<ellipse class="st19" cx="757.4" cy="239.5" rx="13" ry="13.8"/>
			<ellipse class="st16" cx="757.4" cy="239.5" rx="27.1" ry="28.9"/>
		</g>
		<polygon class="st4" points="467.9,46.2 401.4,-25.9 469,-96.9 535.5,-24.8 		"/>
		<g class="st6">
			<polygon class="st15" points="809.6,172.3 743.1,100.2 780.2,61.2 846.7,133.3 			"/>
			<polygon class="st7" points="807.1,152.1 740.6,80 777.7,41 844.2,113 			"/>
		</g>
		<g class="st6">
			<polygon class="st15" points="179.5,428.9 287.2,315.7 305.5,335.6 197.8,448.7 			"/>
			<polygon class="st7" points="216.5,374.2 293.7,293.2 312,313 234.8,394.1 			"/>
		</g>
		<g class="st6">
			<path class="st16" d="M224.3,528.6l0.2-22.3c0.1-9.6-7.2-17.4-16.1-17.5c-9-0.1-16.3,7.6-16.4,17.2l-0.2,22.3L224.3,528.6z"/>
			<ellipse class="st10" cx="208.1" cy="528.5" rx="16.3" ry="17.4"/>
		</g>
		<g class="st6">
			<path class="st10" d="M370.5,266.6c-5.4-5.9-5.4-15.4,0.2-21.2l-12.9,13.5c-5.5,5.8-5.6,15.3-0.2,21.2c5.4,5.9,14.3,6,19.8,0.2
				l12.9-13.5C384.9,272.5,376,272.5,370.5,266.6z"/>
			<ellipse class="st16" cx="380.5" cy="256.1" rx="14" ry="15"/>
		</g>
		<polygon class="st6" points="675.1,250.4 630.4,250.1 630.7,202.3 675.5,202.7 		"/>
		<g class="st6">
			<line class="st7" x1="304" y1="253.4" x2="292.5" y2="253.3"/>
			<line class="st7" x1="298.3" y1="247.2" x2="298.2" y2="259.5"/>
		</g>
		<g class="st6">
			<line class="st7" x1="628.6" y1="476" x2="619.3" y2="475.9"/>
			<line class="st7" x1="624" y1="471" x2="623.9" y2="481"/>
		</g>
		<g class="st6">
			<line class="st7" x1="782.7" y1="415.9" x2="771.1" y2="415.8"/>
			<line class="st7" x1="776.9" y1="409.7" x2="776.9" y2="422"/>
		</g>
		<g class="st6">
			<line class="st7" x1="393.2" y1="32.6" x2="387.5" y2="32.5"/>
			<line class="st7" x1="390.4" y1="29.5" x2="390.3" y2="35.6"/>
		</g>
		<g class="st6">
			<line class="st7" x1="192.4" y1="27.4" x2="181.4" y2="27.3"/>
			<line class="st7" x1="186.9" y1="21.5" x2="186.8" y2="33.2"/>
		</g>
		<g class="st6">
			<line class="st7" x1="742.6" y1="172" x2="733.4" y2="171.9"/>
			<line class="st7" x1="738" y1="167" x2="738" y2="176.8"/>
		</g>
		<g class="st6">
			<line class="st7" x1="483.2" y1="261.8" x2="475.8" y2="261.7"/>
			<line class="st7" x1="479.5" y1="257.8" x2="479.4" y2="265.7"/>
		</g>
		<g class="st6">
			<line class="st7" x1="504.5" y1="262" x2="497.1" y2="261.9"/>
			<line class="st7" x1="500.9" y1="258" x2="500.8" y2="265.9"/>
		</g>
		<g class="st6">
			<line class="st7" x1="525.9" y1="262.2" x2="518.5" y2="262.1"/>
			<line class="st7" x1="522.2" y1="258.2" x2="522.1" y2="266.1"/>
		</g>
		<g class="st6">
			<line class="st7" x1="547.2" y1="262.3" x2="539.8" y2="262.3"/>
			<line class="st7" x1="543.6" y1="258.4" x2="543.5" y2="266.3"/>
		</g>
		<g class="st6">
			<line class="st7" x1="568.6" y1="262.5" x2="561.2" y2="262.5"/>
			<line class="st7" x1="564.9" y1="258.5" x2="564.8" y2="266.5"/>
		</g>
		<g class="st6">
			<line class="st7" x1="48.6" y1="194.5" x2="37" y2="194.4"/>
			<line class="st7" x1="42.8" y1="188.3" x2="42.8" y2="200.6"/>
		</g>
		<g class="st6">
			<line class="st7" x1="178.3" y1="347.3" x2="170" y2="347.3"/>
			<line class="st7" x1="174.2" y1="342.8" x2="174.1" y2="351.8"/>
		</g>
		<g class="st6">
			<line class="st7" x1="738.1" y1="31.5" x2="732" y2="31.5"/>
			<line class="st7" x1="735.1" y1="28.2" x2="735" y2="34.8"/>
		</g>
		<g class="st6">
			<line class="st7" x1="585.5" y1="371.5" x2="578.6" y2="371.5"/>
			<line class="st7" x1="582.1" y1="367.8" x2="582" y2="375.2"/>
		</g>
		<g class="st6">
			<line class="st7" x1="151.7" y1="546.1" x2="144.8" y2="546.1"/>
			<line class="st7" x1="148.3" y1="542.4" x2="148.3" y2="549.8"/>
		</g>
		<path class="st4" d="M456.5,479.2c0,4.4-3.4,7.9-7.5,7.9c-4.1,0-7.4-3.6-7.4-8c0-4.4,3.4-7.9,7.5-7.9
			C453.2,471.3,456.5,474.9,456.5,479.2z"/>
		<path class="st4" d="M264.7,205c0,4.4-3.4,7.9-7.5,7.9c-4.1,0-7.4-3.6-7.4-8c0-4.4,3.4-7.9,7.5-7.9
			C261.4,197,264.7,200.6,264.7,205z"/>
		<path class="st4" d="M132.2,426.6c0,4.4-3.4,7.9-7.5,7.9c-4.1,0-7.4-3.6-7.4-8c0-4.4,3.4-7.9,7.5-7.9
			C129,418.6,132.3,422.2,132.2,426.6z"/>
	</g>
</g>
</svg>
